<svg width="570" height="570" viewBox="0 0 570 570" fill="none" xmlns="http://www.w3.org/2000/svg">
    <rect x="110" y="110" width="350" height="350" rx="50" fill="black"/>
    <path d="M218.403 303V266.636H222.807V299.094H239.71V303H218.403ZM275.794 284.818C275.794 288.653 275.102 291.968 273.717 294.761C272.332 297.555 270.432 299.709 268.017 301.224C265.602 302.74 262.844 303.497 259.743 303.497C256.642 303.497 253.884 302.74 251.469 301.224C249.054 299.709 247.154 297.555 245.769 294.761C244.384 291.968 243.692 288.653 243.692 284.818C243.692 280.983 244.384 277.669 245.769 274.875C247.154 272.081 249.054 269.927 251.469 268.412C253.884 266.897 256.642 266.139 259.743 266.139C262.844 266.139 265.602 266.897 268.017 268.412C270.432 269.927 272.332 272.081 273.717 274.875C275.102 277.669 275.794 280.983 275.794 284.818ZM271.533 284.818C271.533 281.67 271.006 279.012 269.953 276.846C268.911 274.68 267.496 273.04 265.709 271.928C263.933 270.815 261.945 270.259 259.743 270.259C257.541 270.259 255.547 270.815 253.759 271.928C251.984 273.04 250.569 274.68 249.516 276.846C248.474 279.012 247.953 281.67 247.953 284.818C247.953 287.967 248.474 290.624 249.516 292.79C250.569 294.957 251.984 296.596 253.759 297.709C255.547 298.821 257.541 299.378 259.743 299.378C261.945 299.378 263.933 298.821 265.709 297.709C267.496 296.596 268.911 294.957 269.953 292.79C271.006 290.624 271.533 287.967 271.533 284.818ZM308.056 278C307.666 276.804 307.151 275.733 306.512 274.786C305.884 273.827 305.133 273.011 304.257 272.336C303.392 271.661 302.41 271.146 301.309 270.791C300.208 270.436 299.001 270.259 297.687 270.259C295.533 270.259 293.574 270.815 291.81 271.928C290.046 273.04 288.643 274.68 287.602 276.846C286.56 279.012 286.039 281.67 286.039 284.818C286.039 287.967 286.566 290.624 287.619 292.79C288.673 294.957 290.099 296.596 291.899 297.709C293.698 298.821 295.722 299.378 297.971 299.378C300.054 299.378 301.889 298.934 303.475 298.046C305.073 297.147 306.316 295.88 307.204 294.246C308.104 292.601 308.553 290.666 308.553 288.44L309.903 288.724H298.965V284.818H312.815V288.724C312.815 291.719 312.176 294.323 310.897 296.537C309.631 298.75 307.879 300.467 305.642 301.686C303.416 302.893 300.859 303.497 297.971 303.497C294.751 303.497 291.922 302.74 289.484 301.224C287.057 299.709 285.163 297.555 283.802 294.761C282.453 291.968 281.778 288.653 281.778 284.818C281.778 281.942 282.163 279.355 282.932 277.059C283.713 274.751 284.814 272.786 286.235 271.164C287.655 269.542 289.336 268.299 291.277 267.435C293.218 266.571 295.355 266.139 297.687 266.139C299.605 266.139 301.392 266.429 303.049 267.009C304.718 267.577 306.204 268.388 307.506 269.442C308.82 270.483 309.915 271.732 310.791 273.188C311.667 274.632 312.27 276.236 312.602 278H308.056ZM351.038 284.818C351.038 288.653 350.346 291.968 348.961 294.761C347.576 297.555 345.676 299.709 343.261 301.224C340.847 302.74 338.089 303.497 334.987 303.497C331.886 303.497 329.128 302.74 326.713 301.224C324.298 299.709 322.398 297.555 321.013 294.761C319.629 291.968 318.936 288.653 318.936 284.818C318.936 280.983 319.629 277.669 321.013 274.875C322.398 272.081 324.298 269.927 326.713 268.412C329.128 266.897 331.886 266.139 334.987 266.139C338.089 266.139 340.847 266.897 343.261 268.412C345.676 269.927 347.576 272.081 348.961 274.875C350.346 277.669 351.038 280.983 351.038 284.818ZM346.777 284.818C346.777 281.67 346.25 279.012 345.197 276.846C344.155 274.68 342.741 273.04 340.953 271.928C339.178 270.815 337.189 270.259 334.987 270.259C332.786 270.259 330.791 270.815 329.004 271.928C327.228 273.04 325.813 274.68 324.76 276.846C323.718 279.012 323.197 281.67 323.197 284.818C323.197 287.967 323.718 290.624 324.76 292.79C325.813 294.957 327.228 296.596 329.004 297.709C330.791 298.821 332.786 299.378 334.987 299.378C337.189 299.378 339.178 298.821 340.953 297.709C342.741 296.596 344.155 294.957 345.197 292.79C346.25 290.624 346.777 287.967 346.777 284.818Z"
          fill="white"/>
    <path d="M218.403 303H217.403V304H218.403V303ZM218.403 266.636V265.636H217.403V266.636H218.403ZM222.807 266.636H223.807V265.636H222.807V266.636ZM222.807 299.094H221.807V300.094H222.807V299.094ZM239.71 299.094H240.71V298.094H239.71V299.094ZM239.71 303V304H240.71V303H239.71ZM219.403 303V266.636H217.403V303H219.403ZM218.403 267.636H222.807V265.636H218.403V267.636ZM221.807 266.636V299.094H223.807V266.636H221.807ZM222.807 300.094H239.71V298.094H222.807V300.094ZM238.71 299.094V303H240.71V299.094H238.71ZM239.71 302H218.403V304H239.71V302ZM273.717 294.761L272.821 294.317L272.821 294.317L273.717 294.761ZM268.017 301.224L268.549 302.071L268.549 302.071L268.017 301.224ZM251.469 301.224L250.937 302.071L250.937 302.071L251.469 301.224ZM245.769 294.761L246.665 294.317L246.665 294.317L245.769 294.761ZM268.017 268.412L268.549 267.565L268.549 267.565L268.017 268.412ZM273.717 274.875L272.821 275.319L272.821 275.319L273.717 274.875ZM269.953 276.846L269.051 277.279L269.053 277.283L269.953 276.846ZM265.709 271.928L265.178 272.775L265.181 272.777L265.709 271.928ZM253.759 271.928L253.231 271.079L253.228 271.08L253.759 271.928ZM249.516 276.846L248.617 276.409L248.615 276.413L249.516 276.846ZM249.516 292.79L248.615 293.224L248.617 293.228L249.516 292.79ZM253.759 297.709L253.228 298.556L253.231 298.558L253.759 297.709ZM265.709 297.709L265.181 296.86L265.178 296.861L265.709 297.709ZM269.953 292.79L269.053 292.353L269.051 292.357L269.953 292.79ZM274.794 284.818C274.794 288.534 274.123 291.69 272.821 294.317L274.613 295.206C276.08 292.246 276.794 288.773 276.794 284.818H274.794ZM272.821 294.317C271.51 296.961 269.73 298.969 267.486 300.377L268.549 302.071C271.134 300.449 273.154 298.148 274.613 295.206L272.821 294.317ZM267.486 300.377C265.244 301.784 262.674 302.497 259.743 302.497V304.497C263.015 304.497 265.961 303.695 268.549 302.071L267.486 300.377ZM259.743 302.497C256.813 302.497 254.242 301.784 252 300.377L250.937 302.071C253.525 303.695 256.471 304.497 259.743 304.497V302.497ZM252 300.377C249.756 298.969 247.976 296.961 246.665 294.317L244.873 295.206C246.332 298.148 248.352 300.449 250.937 302.071L252 300.377ZM246.665 294.317C245.363 291.69 244.692 288.534 244.692 284.818H242.692C242.692 288.773 243.406 292.246 244.873 295.206L246.665 294.317ZM244.692 284.818C244.692 281.102 245.363 277.947 246.665 275.319L244.873 274.431C243.406 277.391 242.692 280.864 242.692 284.818H244.692ZM246.665 275.319C247.976 272.675 249.756 270.667 252 269.259L250.937 267.565C248.352 269.187 246.332 271.488 244.873 274.431L246.665 275.319ZM252 269.259C254.242 267.853 256.813 267.139 259.743 267.139V265.139C256.471 265.139 253.525 265.941 250.937 267.565L252 269.259ZM259.743 267.139C262.674 267.139 265.244 267.853 267.486 269.259L268.549 267.565C265.961 265.941 263.015 265.139 259.743 265.139V267.139ZM267.486 269.259C269.73 270.667 271.51 272.675 272.821 275.319L274.613 274.431C273.154 271.488 271.134 269.187 268.549 267.565L267.486 269.259ZM272.821 275.319C274.123 277.947 274.794 281.102 274.794 284.818H276.794C276.794 280.864 276.08 277.391 274.613 274.431L272.821 275.319ZM272.533 284.818C272.533 281.563 271.989 278.746 270.852 276.409L269.053 277.283C270.023 279.278 270.533 281.776 270.533 284.818H272.533ZM270.854 276.413C269.742 274.1 268.208 272.305 266.237 271.079L265.181 272.777C266.785 273.775 268.08 275.259 269.051 277.279L270.854 276.413ZM266.24 271.08C264.297 269.863 262.123 269.259 259.743 269.259V271.259C261.767 271.259 263.57 271.767 265.178 272.775L266.24 271.08ZM259.743 269.259C257.364 269.259 255.184 269.863 253.231 271.079L254.288 272.777C255.909 271.767 257.719 271.259 259.743 271.259V269.259ZM253.228 271.08C251.271 272.307 249.739 274.1 248.617 276.409L250.415 277.283C251.399 275.26 252.696 273.774 254.29 272.775L253.228 271.08ZM248.615 276.413C247.491 278.749 246.953 281.564 246.953 284.818H248.953C248.953 281.775 249.457 279.275 250.417 277.279L248.615 276.413ZM246.953 284.818C246.953 288.072 247.491 290.887 248.615 293.224L250.417 292.357C249.457 290.361 248.953 287.861 248.953 284.818H246.953ZM248.617 293.228C249.739 295.537 251.271 297.33 253.228 298.556L254.29 296.861C252.696 295.862 251.399 294.377 250.415 292.353L248.617 293.228ZM253.231 298.558C255.184 299.774 257.364 300.378 259.743 300.378V298.378C257.719 298.378 255.909 297.869 254.288 296.86L253.231 298.558ZM259.743 300.378C262.123 300.378 264.297 299.774 266.24 298.556L265.178 296.861C263.57 297.869 261.767 298.378 259.743 298.378V300.378ZM266.237 298.558C268.208 297.331 269.742 295.536 270.854 293.224L269.051 292.357C268.08 294.377 266.785 295.861 265.181 296.86L266.237 298.558ZM270.852 293.228C271.989 290.89 272.533 288.074 272.533 284.818H270.533C270.533 287.86 270.023 290.358 269.053 292.353L270.852 293.228ZM308.056 278L307.106 278.311L307.331 279H308.056V278ZM306.512 274.786L305.675 275.334L305.679 275.34L305.683 275.346L306.512 274.786ZM304.257 272.336L303.641 273.124L303.646 273.128L304.257 272.336ZM301.309 270.791L301.616 269.839L301.616 269.839L301.309 270.791ZM291.81 271.928L291.276 271.082L291.81 271.928ZM287.602 276.846L288.503 277.279L288.503 277.279L287.602 276.846ZM287.619 292.79L286.72 293.228L286.72 293.228L287.619 292.79ZM291.899 297.709L291.373 298.559L291.899 297.709ZM303.475 298.046L303.964 298.919L303.966 298.918L303.475 298.046ZM307.204 294.246L306.327 293.767L306.325 293.769L307.204 294.246ZM308.553 288.44L308.759 287.462L307.553 287.208V288.44H308.553ZM309.903 288.724V289.724L310.109 287.746L309.903 288.724ZM298.965 288.724H297.965V289.724H298.965V288.724ZM298.965 284.818V283.818H297.965V284.818H298.965ZM312.815 284.818H313.815V283.818H312.815V284.818ZM310.897 296.537L310.031 296.037L310.029 296.04L310.897 296.537ZM305.642 301.686L306.118 302.565L306.12 302.564L305.642 301.686ZM289.484 301.224L288.954 302.073L288.956 302.074L289.484 301.224ZM283.802 294.761L282.902 295.196L282.903 295.199L283.802 294.761ZM282.932 277.059L281.985 276.738L281.984 276.741L282.932 277.059ZM286.235 271.164L286.987 271.823L286.987 271.823L286.235 271.164ZM291.277 267.435L290.871 266.522L291.277 267.435ZM303.049 267.009L302.719 267.953L302.727 267.956L303.049 267.009ZM307.506 269.442L306.877 270.219L306.885 270.225L307.506 269.442ZM310.791 273.188L309.934 273.704L309.936 273.707L310.791 273.188ZM312.602 278V279H313.807L313.585 277.815L312.602 278ZM309.007 277.689C308.59 276.414 308.036 275.258 307.34 274.227L305.683 275.346C306.265 276.208 306.741 277.194 307.106 278.311L309.007 277.689ZM307.348 274.239C306.662 273.19 305.835 272.289 304.867 271.544L303.646 273.128C304.43 273.732 305.106 274.465 305.675 275.334L307.348 274.239ZM304.872 271.548C303.91 270.797 302.822 270.229 301.616 269.839L301.002 271.743C301.998 272.064 302.874 272.525 303.641 273.124L304.872 271.548ZM301.616 269.839C300.404 269.448 299.091 269.259 297.687 269.259V271.259C298.911 271.259 300.013 271.424 301.002 271.743L301.616 269.839ZM297.687 269.259C295.35 269.259 293.205 269.865 291.276 271.082L292.343 272.773C293.942 271.765 295.715 271.259 297.687 271.259V269.259ZM291.276 271.082C289.331 272.309 287.811 274.103 286.701 276.413L288.503 277.279C289.476 275.256 290.762 273.771 292.343 272.773L291.276 271.082ZM286.701 276.413C285.577 278.749 285.039 281.564 285.039 284.818H287.039C287.039 281.775 287.543 279.275 288.503 277.279L286.701 276.413ZM285.039 284.818C285.039 288.074 285.583 290.89 286.72 293.228L288.519 292.353C287.549 290.358 287.039 287.86 287.039 284.818H285.039ZM286.72 293.228C287.845 295.54 289.391 297.334 291.373 298.559L292.425 296.858C290.808 295.858 289.501 294.373 288.519 292.353L286.72 293.228ZM291.373 298.559C293.34 299.776 295.548 300.378 297.971 300.378V298.378C295.896 298.378 294.056 297.867 292.425 296.858L291.373 298.559ZM297.971 300.378C300.2 300.378 302.208 299.902 303.964 298.919L302.987 297.174C301.571 297.966 299.909 298.378 297.971 298.378V300.378ZM303.966 298.918C305.73 297.924 307.106 296.52 308.083 294.724L306.325 293.769C305.526 295.24 304.417 296.369 302.985 297.175L303.966 298.918ZM308.081 294.726C309.075 292.909 309.553 290.802 309.553 288.44H307.553C307.553 290.529 307.132 292.294 306.327 293.767L308.081 294.726ZM308.347 289.419L309.697 289.703L310.109 287.746L308.759 287.462L308.347 289.419ZM309.903 287.724H298.965V289.724H309.903V287.724ZM299.965 288.724V284.818H297.965V288.724H299.965ZM298.965 285.818H312.815V283.818H298.965V285.818ZM311.815 284.818V288.724H313.815V284.818H311.815ZM311.815 288.724C311.815 291.574 311.208 294 310.031 296.037L311.763 297.037C313.143 294.647 313.815 291.864 313.815 288.724H311.815ZM310.029 296.04C308.855 298.093 307.237 299.678 305.163 300.808L306.12 302.564C308.52 301.256 310.407 299.408 311.765 297.034L310.029 296.04ZM305.165 300.807C303.105 301.924 300.716 302.497 297.971 302.497V304.497C301.002 304.497 303.727 303.862 306.118 302.565L305.165 300.807ZM297.971 302.497C294.915 302.497 292.273 301.78 290.012 300.375L288.956 302.074C291.572 303.699 294.588 304.497 297.971 304.497V302.497ZM290.013 300.376C287.76 298.969 285.987 296.963 284.701 294.323L282.903 295.199C284.339 298.147 286.355 300.45 288.954 302.073L290.013 300.376ZM284.702 294.326C283.432 291.697 282.778 288.538 282.778 284.818H280.778C280.778 288.769 281.473 292.239 282.902 295.196L284.702 294.326ZM282.778 284.818C282.778 282.03 283.151 279.553 283.88 277.377L281.984 276.741C281.174 279.157 280.778 281.853 280.778 284.818H282.778ZM283.879 277.38C284.624 275.18 285.664 273.334 286.987 271.823L285.482 270.505C283.965 272.238 282.803 274.322 281.985 276.738L283.879 277.38ZM286.987 271.823C288.313 270.309 289.877 269.153 291.684 268.349L290.871 266.522C288.795 267.446 286.997 268.776 285.482 270.505L286.987 271.823ZM291.684 268.349C293.485 267.547 295.481 267.139 297.687 267.139V265.139C295.229 265.139 292.952 265.595 290.871 266.522L291.684 268.349ZM297.687 267.139C299.502 267.139 301.177 267.414 302.719 267.953L303.38 266.065C301.607 265.445 299.707 265.139 297.687 265.139V267.139ZM302.727 267.956C304.29 268.488 305.671 269.244 306.877 270.219L308.135 268.664C306.737 267.533 305.146 266.667 303.371 266.063L302.727 267.956ZM306.885 270.225C308.103 271.192 309.119 272.349 309.934 273.704L311.648 272.673C310.711 271.115 309.536 269.775 308.127 268.658L306.885 270.225ZM309.936 273.707C310.745 275.042 311.308 276.532 311.619 278.185L313.585 277.815C313.232 275.941 312.588 274.223 311.646 272.67L309.936 273.707ZM312.602 277H308.056V279H312.602V277ZM348.961 294.761L348.065 294.317L348.065 294.317L348.961 294.761ZM343.261 301.224L343.793 302.071L343.793 302.071L343.261 301.224ZM326.713 301.224L326.182 302.071L326.182 302.071L326.713 301.224ZM321.013 294.761L321.909 294.317L321.909 294.317L321.013 294.761ZM343.261 268.412L343.793 267.565L343.793 267.565L343.261 268.412ZM348.961 274.875L348.065 275.319L348.065 275.319L348.961 274.875ZM345.197 276.846L344.296 277.279L344.297 277.283L345.197 276.846ZM340.953 271.928L340.422 272.775L340.425 272.777L340.953 271.928ZM329.004 271.928L328.475 271.079L328.473 271.08L329.004 271.928ZM324.76 276.846L323.861 276.409L323.859 276.413L324.76 276.846ZM324.76 292.79L323.859 293.224L323.861 293.228L324.76 292.79ZM329.004 297.709L328.473 298.556L328.475 298.558L329.004 297.709ZM340.953 297.709L340.425 296.86L340.422 296.861L340.953 297.709ZM345.197 292.79L344.297 292.353L344.296 292.357L345.197 292.79ZM350.038 284.818C350.038 288.534 349.368 291.69 348.065 294.317L349.857 295.206C351.324 292.246 352.038 288.773 352.038 284.818H350.038ZM348.065 294.317C346.754 296.961 344.974 298.969 342.73 300.377L343.793 302.071C346.378 300.449 348.398 298.148 349.857 295.206L348.065 294.317ZM342.73 300.377C340.488 301.784 337.918 302.497 334.987 302.497V304.497C338.259 304.497 341.205 303.695 343.793 302.071L342.73 300.377ZM334.987 302.497C332.057 302.497 329.486 301.784 327.245 300.377L326.182 302.071C328.77 303.695 331.715 304.497 334.987 304.497V302.497ZM327.245 300.377C325.001 298.969 323.22 296.961 321.909 294.317L320.118 295.206C321.577 298.148 323.596 300.449 326.182 302.071L327.245 300.377ZM321.909 294.317C320.607 291.69 319.936 288.534 319.936 284.818H317.936C317.936 288.773 318.65 292.246 320.118 295.206L321.909 294.317ZM319.936 284.818C319.936 281.102 320.607 277.947 321.909 275.319L320.118 274.431C318.65 277.391 317.936 280.864 317.936 284.818H319.936ZM321.909 275.319C323.22 272.675 325.001 270.667 327.245 269.259L326.182 267.565C323.596 269.187 321.577 271.488 320.118 274.431L321.909 275.319ZM327.245 269.259C329.486 267.853 332.057 267.139 334.987 267.139V265.139C331.715 265.139 328.77 265.941 326.182 267.565L327.245 269.259ZM334.987 267.139C337.918 267.139 340.488 267.853 342.73 269.259L343.793 267.565C341.205 265.941 338.259 265.139 334.987 265.139V267.139ZM342.73 269.259C344.974 270.667 346.754 272.675 348.065 275.319L349.857 274.431C348.398 271.488 346.378 269.187 343.793 267.565L342.73 269.259ZM348.065 275.319C349.368 277.947 350.038 281.102 350.038 284.818H352.038C352.038 280.864 351.324 277.391 349.857 274.431L348.065 275.319ZM347.777 284.818C347.777 281.563 347.233 278.746 346.096 276.409L344.297 277.283C345.268 279.278 345.777 281.776 345.777 284.818H347.777ZM346.098 276.413C344.986 274.1 343.452 272.305 341.482 271.079L340.425 272.777C342.029 273.775 343.324 275.259 344.296 277.279L346.098 276.413ZM341.484 271.08C339.541 269.863 337.367 269.259 334.987 269.259V271.259C337.011 271.259 338.814 271.767 340.422 272.775L341.484 271.08ZM334.987 269.259C332.608 269.259 330.429 269.863 328.475 271.079L329.532 272.777C331.153 271.767 332.963 271.259 334.987 271.259V269.259ZM328.473 271.08C326.516 272.307 324.984 274.1 323.861 276.409L325.659 277.283C326.643 275.26 327.94 273.774 329.535 272.775L328.473 271.08ZM323.859 276.413C322.735 278.749 322.197 281.564 322.197 284.818H324.197C324.197 281.775 324.701 279.275 325.661 277.279L323.859 276.413ZM322.197 284.818C322.197 288.072 322.735 290.887 323.859 293.224L325.661 292.357C324.701 290.361 324.197 287.861 324.197 284.818H322.197ZM323.861 293.228C324.984 295.537 326.516 297.33 328.473 298.556L329.535 296.861C327.94 295.862 326.643 294.377 325.659 292.353L323.861 293.228ZM328.475 298.558C330.429 299.774 332.608 300.378 334.987 300.378V298.378C332.963 298.378 331.153 297.869 329.532 296.86L328.475 298.558ZM334.987 300.378C337.367 300.378 339.541 299.774 341.484 298.556L340.422 296.861C338.814 297.869 337.011 298.378 334.987 298.378V300.378ZM341.482 298.558C343.452 297.331 344.986 295.536 346.098 293.224L344.296 292.357C343.324 294.377 342.029 295.861 340.425 296.86L341.482 298.558ZM346.096 293.228C347.233 290.89 347.777 288.074 347.777 284.818H345.777C345.777 287.86 345.268 290.358 344.297 292.353L346.096 293.228Z"
          fill="white"/>
</svg>
